<svg xmlns="http://www.w3.org/2000/svg" width="805.568" height="157.92"><path d="M141.521 120.863q-8.093 16.292-25.024 26.728-16.825 10.329-38.122 10.329-35.567 0-56.97-19.7Q0 118.413 0 82.208q0-37.377 21.084-59.739Q42.276 0 76.032 0q24.279 0 40.146 10.862 15.973 10.755 24.492 29.71l-30.455 11.394q-5.218-11.607-13.417-16.718-8.093-5.218-20.126-5.218-17.677 0-29.071 14.056-11.394 13.95-11.394 35.673 0 22.895 11.714 35.247 11.714 12.352 31.733 12.352 11.075 0 19.381-5.111 8.306-5.111 12.885-15.121zm39.261 4.325q-19.224 0-31.036-11.117-11.735-11.117-11.658-30.032.077-18.838 11.812-30.264 11.812-11.503 31.962-11.503 19.841 0 31.113 11.426 11.272 11.426 11.272 28.951 0 18.992-12.198 30.804-12.198 11.735-31.267 11.735zm.772-18.992q8.956 0 13.356-6.485 4.478-6.485 4.478-16.599 0-10.114-4.478-15.981-4.478-5.867-13.511-5.867-8.801 0-13.665 6.331-4.864 6.253-4.864 16.135 0 9.882 4.632 16.213 4.709 6.253 14.051 6.253zm96.621-40.686q-2.548-.849-5.018-1.235-2.471-.463-4.864-.463-7.257 0-11.812 5.867-4.555 5.79-4.555 15.827v37.752H227.53V44.202h24.396v14.051h.309q2.857-7.72 8.106-11.58 5.25-3.86 12.584-3.86 2.857 0 5.404.463 2.625.386 5.173 1.39zm75.159 25.168h-51.572q.54 7.643 5.25 12.198 4.787 4.478 12.507 4.478 4.709 0 8.57-2.316 3.937-2.316 7.025-6.948l17.911 10.191q-6.794 8.801-15.209 12.893-8.415 4.015-18.683 4.015-19.61 0-30.572-10.577-10.963-10.654-10.963-29.646 0-19.687 11.426-31.19 11.426-11.503 28.102-11.503 17.293 0 26.712 10.268 9.496 10.268 9.496 30.881zm-22.621-15.441q0-8.106-3.474-12.121-3.397-4.092-9.187-4.092-6.948 0-11.272 4.632-4.246 4.632-5.173 11.58zM564.759 2.556l-39.507 152.702h-38.974l-25.344-96.051q-.958-3.514-1.491-5.857-.426-2.449-1.065-6.176h-.426q-.639 3.727-1.278 6.283-.532 2.449-1.384 5.75l-25.983 96.051h-40.571L349.442 2.556H386.5l22.043 99.991q.639 3.088 1.065 5.324.426 2.13 1.171 6.922h.639q.852-4.792 1.278-6.709.426-1.917 1.597-5.963L441.98 2.556h36.844l25.024 100.843q.745 3.088 1.171 5.111.426 1.917 1.278 6.07h.426q.745-4.366 1.065-6.176.319-1.917 1.171-5.644L530.47 2.556zm139.04 118.307q-8.093 16.292-25.024 26.728-16.825 10.329-38.122 10.329-35.567 0-56.97-19.7-21.404-19.807-21.404-56.012 0-37.377 21.084-59.739Q604.553 0 638.309 0q24.279 0 40.146 10.862 15.973 10.755 24.492 29.71l-30.455 11.394q-5.218-11.607-13.417-16.718-8.093-5.218-20.126-5.218-17.677 0-29.071 14.056-11.394 13.95-11.394 35.673 0 22.895 11.714 35.247 11.714 12.352 31.733 12.352 11.075 0 19.381-5.111 8.306-5.111 12.885-15.121zm101.77-89.768h-53.882v36.738h49.516v28.325h-49.516v59.1h-34.395V2.556h88.278z"/></svg>